<mxfile host="app.diagrams.net" modified="2021-05-25T04:08:21.459Z" agent="5.0 (Windows NT 10.0; Win64; x64) AppleWebKit/537.36 (KHTML, like Gecko) Chrome/90.0.4430.212 Safari/537.36" etag="WVdNci-qQzTDm3-2wU6A" version="14.7.0" type="github">
  <diagram id="EZDQm-cttC1tUBDbLi6K" name="Page-1">
    <mxGraphModel dx="1022" dy="1546" grid="1" gridSize="10" guides="1" tooltips="1" connect="1" arrows="1" fold="1" page="1" pageScale="1" pageWidth="850" pageHeight="1100" math="0" shadow="0">
      <root>
        <mxCell id="0" />
        <mxCell id="1" parent="0" />
        <mxCell id="_uDhniaOkw3zcQXAQ8zI-9" value="" style="ellipse;whiteSpace=wrap;html=1;" parent="1" vertex="1">
          <mxGeometry x="590" y="100" width="200" height="350" as="geometry" />
        </mxCell>
        <mxCell id="_uDhniaOkw3zcQXAQ8zI-8" value="" style="ellipse;whiteSpace=wrap;html=1;" parent="1" vertex="1">
          <mxGeometry x="100" y="110" width="200" height="350" as="geometry" />
        </mxCell>
        <mxCell id="_uDhniaOkw3zcQXAQ8zI-7" style="edgeStyle=orthogonalEdgeStyle;rounded=0;orthogonalLoop=1;jettySize=auto;html=1;" parent="1" source="_uDhniaOkw3zcQXAQ8zI-1" edge="1">
          <mxGeometry relative="1" as="geometry">
            <mxPoint x="200" y="140" as="targetPoint" />
          </mxGeometry>
        </mxCell>
        <mxCell id="_uDhniaOkw3zcQXAQ8zI-24" style="edgeStyle=orthogonalEdgeStyle;rounded=0;orthogonalLoop=1;jettySize=auto;html=1;entryX=0.5;entryY=0;entryDx=0;entryDy=0;" parent="1" source="_uDhniaOkw3zcQXAQ8zI-1" target="_uDhniaOkw3zcQXAQ8zI-5" edge="1">
          <mxGeometry relative="1" as="geometry" />
        </mxCell>
        <mxCell id="_uDhniaOkw3zcQXAQ8zI-1" value="Master Repo" style="rounded=1;whiteSpace=wrap;html=1;" parent="1" vertex="1">
          <mxGeometry x="410" y="-50" width="70" height="30" as="geometry" />
        </mxCell>
        <mxCell id="_uDhniaOkw3zcQXAQ8zI-10" style="edgeStyle=orthogonalEdgeStyle;rounded=0;orthogonalLoop=1;jettySize=auto;html=1;entryX=0.5;entryY=0;entryDx=0;entryDy=0;" parent="1" edge="1">
          <mxGeometry relative="1" as="geometry">
            <mxPoint x="205" y="180" as="sourcePoint" />
            <mxPoint x="205" y="230" as="targetPoint" />
          </mxGeometry>
        </mxCell>
        <mxCell id="_uDhniaOkw3zcQXAQ8zI-17" style="edgeStyle=orthogonalEdgeStyle;rounded=0;orthogonalLoop=1;jettySize=auto;html=1;" parent="1" source="_uDhniaOkw3zcQXAQ8zI-3" edge="1">
          <mxGeometry relative="1" as="geometry">
            <mxPoint x="390" y="165" as="targetPoint" />
          </mxGeometry>
        </mxCell>
        <mxCell id="_uDhniaOkw3zcQXAQ8zI-3" value="Remote Repo" style="rounded=1;whiteSpace=wrap;html=1;" parent="1" vertex="1">
          <mxGeometry x="160" y="150" width="70" height="30" as="geometry" />
        </mxCell>
        <mxCell id="_uDhniaOkw3zcQXAQ8zI-15" style="edgeStyle=orthogonalEdgeStyle;rounded=0;orthogonalLoop=1;jettySize=auto;html=1;" parent="1" source="_uDhniaOkw3zcQXAQ8zI-4" target="_uDhniaOkw3zcQXAQ8zI-12" edge="1">
          <mxGeometry relative="1" as="geometry" />
        </mxCell>
        <mxCell id="_uDhniaOkw3zcQXAQ8zI-4" value="Local Repo" style="rounded=1;whiteSpace=wrap;html=1;" parent="1" vertex="1">
          <mxGeometry x="160" y="230" width="70" height="30" as="geometry" />
        </mxCell>
        <mxCell id="_uDhniaOkw3zcQXAQ8zI-21" style="edgeStyle=orthogonalEdgeStyle;rounded=0;orthogonalLoop=1;jettySize=auto;html=1;" parent="1" source="_uDhniaOkw3zcQXAQ8zI-5" edge="1">
          <mxGeometry relative="1" as="geometry">
            <mxPoint x="490" y="165" as="targetPoint" />
          </mxGeometry>
        </mxCell>
        <mxCell id="_uDhniaOkw3zcQXAQ8zI-34" style="edgeStyle=orthogonalEdgeStyle;rounded=0;orthogonalLoop=1;jettySize=auto;html=1;entryX=0.5;entryY=0;entryDx=0;entryDy=0;" parent="1" edge="1">
          <mxGeometry relative="1" as="geometry">
            <mxPoint x="695" y="180" as="sourcePoint" />
            <mxPoint x="695" y="230" as="targetPoint" />
          </mxGeometry>
        </mxCell>
        <mxCell id="_uDhniaOkw3zcQXAQ8zI-5" value="Remote Repo" style="rounded=1;whiteSpace=wrap;html=1;" parent="1" vertex="1">
          <mxGeometry x="650" y="150" width="70" height="30" as="geometry" />
        </mxCell>
        <mxCell id="_uDhniaOkw3zcQXAQ8zI-40" style="edgeStyle=orthogonalEdgeStyle;rounded=0;orthogonalLoop=1;jettySize=auto;html=1;" parent="1" source="_uDhniaOkw3zcQXAQ8zI-6" target="_uDhniaOkw3zcQXAQ8zI-39" edge="1">
          <mxGeometry relative="1" as="geometry" />
        </mxCell>
        <mxCell id="_uDhniaOkw3zcQXAQ8zI-6" value="Local Repo" style="rounded=1;whiteSpace=wrap;html=1;" parent="1" vertex="1">
          <mxGeometry x="650" y="230" width="70" height="30" as="geometry" />
        </mxCell>
        <mxCell id="_uDhniaOkw3zcQXAQ8zI-12" value="Working copy" style="rounded=1;whiteSpace=wrap;html=1;" parent="1" vertex="1">
          <mxGeometry x="155" y="340" width="80" height="30" as="geometry" />
        </mxCell>
        <mxCell id="_uDhniaOkw3zcQXAQ8zI-20" style="edgeStyle=orthogonalEdgeStyle;rounded=0;orthogonalLoop=1;jettySize=auto;html=1;" parent="1" source="_uDhniaOkw3zcQXAQ8zI-19" edge="1">
          <mxGeometry relative="1" as="geometry">
            <mxPoint x="445" as="targetPoint" />
            <Array as="points">
              <mxPoint x="445" y="20" />
            </Array>
          </mxGeometry>
        </mxCell>
        <mxCell id="_uDhniaOkw3zcQXAQ8zI-19" value="Reviewer/Approver" style="shape=umlActor;verticalLabelPosition=bottom;verticalAlign=top;html=1;outlineConnect=0;" parent="1" vertex="1">
          <mxGeometry x="425" y="132.5" width="40" height="65" as="geometry" />
        </mxCell>
        <mxCell id="_uDhniaOkw3zcQXAQ8zI-23" value="PULL Request" style="text;html=1;align=center;verticalAlign=middle;resizable=0;points=[];autosize=1;strokeColor=none;" parent="1" vertex="1">
          <mxGeometry x="510" y="140" width="90" height="20" as="geometry" />
        </mxCell>
        <mxCell id="_uDhniaOkw3zcQXAQ8zI-25" value="Developer B" style="text;html=1;align=center;verticalAlign=middle;resizable=0;points=[];autosize=1;strokeColor=none;" parent="1" vertex="1">
          <mxGeometry x="690" y="70" width="80" height="20" as="geometry" />
        </mxCell>
        <mxCell id="_uDhniaOkw3zcQXAQ8zI-26" value="Developer A" style="text;html=1;align=center;verticalAlign=middle;resizable=0;points=[];autosize=1;strokeColor=none;" parent="1" vertex="1">
          <mxGeometry x="220" y="70" width="80" height="20" as="geometry" />
        </mxCell>
        <mxCell id="_uDhniaOkw3zcQXAQ8zI-27" value="Clone" style="text;html=1;align=center;verticalAlign=middle;resizable=0;points=[];autosize=1;strokeColor=none;" parent="1" vertex="1">
          <mxGeometry x="270" y="-60" width="50" height="20" as="geometry" />
        </mxCell>
        <mxCell id="_uDhniaOkw3zcQXAQ8zI-28" value="Clone" style="text;html=1;align=center;verticalAlign=middle;resizable=0;points=[];autosize=1;strokeColor=none;" parent="1" vertex="1">
          <mxGeometry x="570" y="-60" width="50" height="20" as="geometry" />
        </mxCell>
        <mxCell id="_uDhniaOkw3zcQXAQ8zI-29" value="MERGE" style="text;html=1;align=center;verticalAlign=middle;resizable=0;points=[];autosize=1;strokeColor=none;" parent="1" vertex="1">
          <mxGeometry x="450" y="60" width="60" height="20" as="geometry" />
        </mxCell>
        <mxCell id="_uDhniaOkw3zcQXAQ8zI-31" value="MERGE" style="text;html=1;align=center;verticalAlign=middle;resizable=0;points=[];autosize=1;strokeColor=none;" parent="1" vertex="1">
          <mxGeometry x="380" y="60" width="60" height="20" as="geometry" />
        </mxCell>
        <mxCell id="_uDhniaOkw3zcQXAQ8zI-32" value="PULL" style="text;html=1;align=center;verticalAlign=middle;resizable=0;points=[];autosize=1;strokeColor=none;" parent="1" vertex="1">
          <mxGeometry x="200" y="197.5" width="50" height="20" as="geometry" />
        </mxCell>
        <mxCell id="_uDhniaOkw3zcQXAQ8zI-33" value="PULL" style="text;html=1;align=center;verticalAlign=middle;resizable=0;points=[];autosize=1;strokeColor=none;" parent="1" vertex="1">
          <mxGeometry x="700" y="197.5" width="50" height="20" as="geometry" />
        </mxCell>
        <mxCell id="_uDhniaOkw3zcQXAQ8zI-35" value="PUSH" style="text;html=1;align=center;verticalAlign=middle;resizable=0;points=[];autosize=1;strokeColor=none;" parent="1" vertex="1">
          <mxGeometry x="130" y="197.5" width="50" height="20" as="geometry" />
        </mxCell>
        <mxCell id="_uDhniaOkw3zcQXAQ8zI-36" value="PUSH" style="text;html=1;align=center;verticalAlign=middle;resizable=0;points=[];autosize=1;strokeColor=none;" parent="1" vertex="1">
          <mxGeometry x="620" y="197.5" width="50" height="20" as="geometry" />
        </mxCell>
        <mxCell id="_uDhniaOkw3zcQXAQ8zI-38" value="" style="endArrow=classic;html=1;" parent="1" edge="1">
          <mxGeometry width="50" height="50" relative="1" as="geometry">
            <mxPoint x="180" y="230" as="sourcePoint" />
            <mxPoint x="180" y="180" as="targetPoint" />
          </mxGeometry>
        </mxCell>
        <mxCell id="_uDhniaOkw3zcQXAQ8zI-39" value="Working copy" style="rounded=1;whiteSpace=wrap;html=1;" parent="1" vertex="1">
          <mxGeometry x="645" y="350" width="80" height="30" as="geometry" />
        </mxCell>
        <mxCell id="_uDhniaOkw3zcQXAQ8zI-41" value="COMMIT" style="text;html=1;align=center;verticalAlign=middle;resizable=0;points=[];autosize=1;strokeColor=none;" parent="1" vertex="1">
          <mxGeometry x="195" y="290" width="60" height="20" as="geometry" />
        </mxCell>
        <mxCell id="_uDhniaOkw3zcQXAQ8zI-42" value="COMMIT" style="text;html=1;align=center;verticalAlign=middle;resizable=0;points=[];autosize=1;strokeColor=none;" parent="1" vertex="1">
          <mxGeometry x="690" y="290" width="60" height="20" as="geometry" />
        </mxCell>
        <mxCell id="_uDhniaOkw3zcQXAQ8zI-43" value="" style="endArrow=classic;html=1;" parent="1" edge="1">
          <mxGeometry width="50" height="50" relative="1" as="geometry">
            <mxPoint x="670" y="230" as="sourcePoint" />
            <mxPoint x="670" y="180" as="targetPoint" />
          </mxGeometry>
        </mxCell>
        <mxCell id="uhhPZ6CYI6DqSSzA6L2--1" value="PULL Request" style="text;html=1;align=center;verticalAlign=middle;resizable=0;points=[];autosize=1;strokeColor=none;" vertex="1" parent="1">
          <mxGeometry x="290" y="140" width="90" height="20" as="geometry" />
        </mxCell>
      </root>
    </mxGraphModel>
  </diagram>
</mxfile>
